<svg width="501.563" xmlns="http://www.w3.org/2000/svg" height="501.562" id="screenshot-14085938-bc76-80ae-8007-5eb25db197f9" viewBox="0 0 501.563 501.562" xmlns:xlink="http://www.w3.org/1999/xlink" fill="none" version="1.1"><g id="shape-14085938-bc76-80ae-8007-5eb25db197f9" width="535" height="535" xmlns:xlink="http://www.w3.org/1999/xlink" rx="0" ry="0" style="fill: rgb(0, 0, 0);"><g id="shape-14085938-bc76-80ae-8007-5eb25db26556" style="display: none;"><g class="fills" id="fills-14085938-bc76-80ae-8007-5eb25db26556"><rect width="501.563" height="501.56199999999995" x="0.0000016920006373766228" transform="matrix(1.000000, 0.000000, 0.000000, 1.000000, 0.000000, 0.000000)" style="fill: none;" ry="0" fill="none" rx="0" y="-5.684341886080802e-14"/></g></g><g id="shape-14085938-bc76-80ae-8007-5eb25db26557"><defs style="fill: rgb(0, 0, 0);"/></g><g id="shape-14085938-bc76-80ae-8007-5eb25db283a8" rx="0" ry="0" style="fill: rgb(0, 0, 0);"><g id="shape-14085938-bc76-80ae-8007-5eb25db283a9" rx="0" ry="0" style="fill: rgb(0, 0, 0);"><g id="shape-14085938-bc76-80ae-8007-5eb25db3becc" style="opacity: 1;"><defs><linearGradient x1="200.597" y1="351.411" x2="290.087" y2="506.188" xlink:href="#render-6-a" id="render-6-c" gradientUnits="userSpaceOnUse" gradientTransform="matrix(0.999941, 0.000000, 0.000000, 0.999941, -156.474426, 966.495227) translate(70.650339,-1055.1511)"/><linearGradient id="render-6-a"><stop offset="0" style="stop-color: rgb(105, 154, 215); stop-opacity: 1;"/><stop offset=".243" style="stop-color: rgb(126, 177, 221); stop-opacity: 1;"/><stop offset="1" style="stop-color: rgb(126, 186, 228); stop-opacity: 1;"/></linearGradient></defs><g class="fills" id="fills-14085938-bc76-80ae-8007-5eb25db3becc"><path d="M153.0561065673828,256.149169921875L275.24566650390625,467.81170654296875L219.09194946289062,468.3385009765625L186.4702911376953,411.47265625L153.61578369140625,468.0345458984375L125.71507263183594,468.0235595703125L111.42506408691406,443.33544921875L158.23277282714844,362.85009765625L125.00527954101562,305.02783203125Z" style="fill: rgb(255, 173, 148); fill-opacity: 1;"/></g></g><g id="shape-14085938-bc76-80ae-8007-5eb25db3fa7b" rx="0" ry="0" style="fill: rgb(0, 0, 0);"><g id="shape-14085938-bc76-80ae-8007-5eb25db42924" style="opacity: 1;"><g class="fills" id="fills-14085938-bc76-80ae-8007-5eb25db42924"><path d="M197.1591339111328,168.963134765625L74.94878387451172,380.61370849609375L46.41572570800781,332.24652099609375L79.35214233398438,275.5623779296875L13.94084358215332,275.39056396484375L0.0000016920006373766228,251.22235107421875L14.23554801940918,226.50274658203125L107.34173583984375,226.7967529296875L140.80352783203125,169.1097412109375Z" height="1" width="1" style="display: inline; stroke-width: 1.00006; fill: rgb(125, 207, 255); fill-opacity: 1;"/></g></g></g><g id="shape-14085938-bc76-80ae-8007-5eb25db4572f" rx="0" ry="0" style="fill: rgb(0, 0, 0);"><g id="shape-14085938-bc76-80ae-8007-5eb25db4bfed" style="opacity: 1;"><g class="fills" id="fills-14085938-bc76-80ae-8007-5eb25db4bfed"><path d="M206.53460693359375,338.1534423828125L450.93450927734375,338.16546630859375L423.3138427734375,387.05938720703125L357.7557678222656,386.877685546875L390.3125915527344,443.6114501953125L376.3526916503906,467.7686767578125L347.8271484375,467.8001708984375L301.5286560058594,387.02081298828125L234.83935546875,386.885498046875Z" height="1" width="1" style="display: inline; stroke-width: 1.00006; fill: rgb(125, 207, 255); fill-opacity: 1;"/></g></g></g><g id="shape-14085938-bc76-80ae-8007-5eb25db4c3b0" rx="0" ry="0" style="fill: rgb(0, 0, 0);"><g id="shape-14085938-bc76-80ae-8007-5eb25db50c6f" style="opacity: 1;"><g class="fills" id="fills-14085938-bc76-80ae-8007-5eb25db50c6f"><path d="M348.78399658203125,245.413330078125L226.59442138671875,33.75079345703125L282.7481384277344,33.224029541015625L315.36981201171875,90.08984375L348.22430419921875,33.527923583984375L376.1250305175781,33.538909912109375L390.4150390625,58.22705078125L343.6073303222656,138.71240234375L376.8348083496094,196.53460693359375Z" height="1" width="1" style="display: inline; stroke-width: 1.00006; fill: rgb(125, 207, 255); fill-opacity: 1;"/></g></g></g><g id="shape-14085938-bc76-80ae-8007-5eb25db543cb" style="opacity: 1;"><defs><linearGradient x1="-584.199" y1="782.336" x2="-496.297" y2="937.714" xlink:href="#render-13-b" id="render-13-e" gradientUnits="userSpaceOnUse" gradientTransform="matrix(0.999941, 0.000000, 0.000000, 0.999941, -156.474426, 966.495227) translate(864.69589,-1491.3405)"/><linearGradient id="render-13-b"><stop offset="0" style="stop-color: rgb(65, 94, 154); stop-opacity: 1;"/><stop offset=".232" style="stop-color: rgb(74, 107, 175); stop-opacity: 1;"/><stop offset="1" style="stop-color: rgb(82, 119, 195); stop-opacity: 1;"/></linearGradient></defs><g class="fills" id="fills-14085938-bc76-80ae-8007-5eb25db543cb"><path d="M153.0561065673828,256.149169921875L275.24566650390625,467.81170654296875L219.09194946289062,468.3385009765625L186.4702911376953,411.47265625L153.61578369140625,468.0345458984375L125.71507263183594,468.0235595703125L111.42506408691406,443.33544921875L158.23277282714844,362.85009765625L125.00527954101562,305.0279541015625Z" style="stroke-dashoffset: 0; fill-opacity: 1; color-rendering: auto; stroke-width: 3.00018; stroke-linejoin: round; stroke-dasharray: none; stroke-miterlimit: 4; display: inline; shape-rendering: auto; text-rendering: auto; stroke-linecap: butt; visibility: visible; color-interpolation: srgb; clip-rule: nonzero; color-interpolation-filters: linearrgb; fill: rgb(122, 162, 247);"/></g></g><g id="shape-14085938-bc76-80ae-8007-5eb25db596e7" rx="0" ry="0" style="fill: rgb(0, 0, 0);"><g id="shape-14085938-bc76-80ae-8007-5eb25db5fe17" style="opacity: 1;"><g class="fills" id="fills-14085938-bc76-80ae-8007-5eb25db5fe17"><path d="M294.8007507324219,162.92291259765625L50.40083312988281,162.91094970703125L78.0215072631836,114.0169677734375L143.57958984375,114.19873046875L111.02276611328125,57.464935302734375L124.98265075683594,33.30767822265625L153.50820922851562,33.2762451171875L199.80670166015625,114.0555419921875L266.4958801269531,114.1907958984375Z" height="1" width="1" style="display: inline; stroke-width: 1.00006; fill: rgb(122, 162, 247); fill-opacity: 1;"/></g></g></g><g id="shape-14085938-bc76-80ae-8007-5eb25db602b0" rx="0" ry="0" style="fill: rgb(0, 0, 0);"><g id="shape-14085938-bc76-80ae-8007-5eb25db65feb" style="opacity: 1;"><g class="fills" id="fills-14085938-bc76-80ae-8007-5eb25db65feb"><path d="M304.40338134765625,332.5667724609375L426.61370849609375,120.916259765625L455.1467590332031,169.283447265625L422.2103576660156,225.967529296875L487.62164306640625,226.139404296875L501.5625,250.3076171875L487.32696533203125,275.0272216796875L394.22076416015625,274.73321533203125L360.7590637207031,332.420166015625Z" height="1" width="1" style="display: inline; stroke-width: 1.00006; fill: rgb(122, 162, 247); fill-opacity: 1;"/></g></g></g></g></g></g></svg>